<mxfile host="Electron" modified="2024-03-29T20:27:49.563Z" agent="Mozilla/5.0 (Windows NT 10.0; Win64; x64) AppleWebKit/537.36 (KHTML, like Gecko) draw.io/24.1.0 Chrome/120.0.6099.109 Electron/28.1.0 Safari/537.36" etag="ifwwK7Zit7sT0HpiijQP" version="24.1.0" type="device">
  <diagram name="Página-1" id="k2TuSlFKl4DLdvxxo12O">
    <mxGraphModel dx="1420" dy="830" grid="1" gridSize="10" guides="1" tooltips="1" connect="1" arrows="1" fold="1" page="1" pageScale="1" pageWidth="827" pageHeight="1169" background="#CCE5FF" math="0" shadow="0">
      <root>
        <mxCell id="0" />
        <mxCell id="1" parent="0" />
        <mxCell id="k5s_pXgDDWJcjKSnaFx--1" value="&lt;p style=&quot;line-height: 74%;&quot;&gt;&lt;b style=&quot;font-size: 16px;&quot;&gt;&lt;font style=&quot;font-size: 16px;&quot; face=&quot;Comic Sans MS&quot; color=&quot;#000000&quot;&gt;13&lt;br&gt;&lt;br&gt;Hacer un programa para ingresar tres números distintos y listarlos ordenados de menor a mayor. &lt;br&gt;&lt;br&gt;Sugerimos probar CADA UNA de las siguientes 6 combinaciones.&lt;br&gt;&lt;br&gt;Si N1=8, N2=6, N3=10 ó  N1=8, N2=10, N3=6. Se muestra: 6, 8, 10.&lt;br&gt;&lt;br&gt;Si N1=6, N2=8, N3=10 ó  N1=10, N2=8, N3=6. Se muestra: 6, 8, 10.&lt;br&gt;&lt;br&gt;Si N1=6, N2=10, N3=8 ó  N1=10, N2=6, N3=8. Se muestra: 6, 8, 10.&lt;/font&gt;&lt;/b&gt;&lt;/p&gt;" style="text;whiteSpace=wrap;html=1;fontFamily=Architects Daughter;fontSource=https%3A%2F%2Ffonts.googleapis.com%2Fcss%3Ffamily%3DArchitects%2BDaughter;" vertex="1" parent="1">
          <mxGeometry x="50" width="710" height="170" as="geometry" />
        </mxCell>
        <mxCell id="k5s_pXgDDWJcjKSnaFx--86" value="" style="group" vertex="1" connectable="0" parent="1">
          <mxGeometry x="105" y="210" width="525" height="850" as="geometry" />
        </mxCell>
        <mxCell id="k5s_pXgDDWJcjKSnaFx--2" value="" style="strokeWidth=2;html=1;shape=mxgraph.flowchart.start_2;whiteSpace=wrap;rounded=0;labelBackgroundColor=none;strokeColor=#000000;align=center;verticalAlign=middle;fontFamily=Helvetica;fontSize=12;fontColor=default;fillColor=#d5e8d4;aspect=fixed;" vertex="1" parent="k5s_pXgDDWJcjKSnaFx--86">
          <mxGeometry x="175" width="40" height="40" as="geometry" />
        </mxCell>
        <mxCell id="k5s_pXgDDWJcjKSnaFx--7" value="" style="group;aspect=fixed;" vertex="1" connectable="0" parent="k5s_pXgDDWJcjKSnaFx--86">
          <mxGeometry x="100" y="70" width="190" height="40" as="geometry" />
        </mxCell>
        <mxCell id="k5s_pXgDDWJcjKSnaFx--4" value="" style="shape=trapezoid;perimeter=trapezoidPerimeter;whiteSpace=wrap;html=1;fixedSize=1;rounded=0;labelBackgroundColor=none;strokeColor=#121211;strokeWidth=2;align=center;verticalAlign=middle;fontFamily=Helvetica;fontSize=12;fontColor=default;fillColor=#d5e8d4;direction=west;container=0;aspect=fixed;" vertex="1" parent="k5s_pXgDDWJcjKSnaFx--7">
          <mxGeometry width="190" height="40" as="geometry">
            <mxRectangle x="-1020" y="-650" width="50" height="40" as="alternateBounds" />
          </mxGeometry>
        </mxCell>
        <mxCell id="k5s_pXgDDWJcjKSnaFx--6" value="&lt;b&gt;&lt;font color=&quot;#000000&quot; style=&quot;font-size: 15px;&quot; face=&quot;Comic Sans MS&quot;&gt;num1, num2, num3&lt;/font&gt;&lt;/b&gt;" style="text;strokeColor=none;align=center;fillColor=none;html=1;verticalAlign=middle;whiteSpace=wrap;rounded=0;fontFamily=Architects Daughter;fontSource=https%3A%2F%2Ffonts.googleapis.com%2Fcss%3Ffamily%3DArchitects%2BDaughter;aspect=fixed;container=0;" vertex="1" parent="k5s_pXgDDWJcjKSnaFx--7">
          <mxGeometry x="25" width="140" height="40" as="geometry" />
        </mxCell>
        <mxCell id="k5s_pXgDDWJcjKSnaFx--61" value="" style="line;strokeWidth=2;direction=south;html=1;hachureGap=4;fontFamily=Architects Daughter;fontSource=https://fonts.googleapis.com/css?family=Architects+Daughter;strokeColor=#000000;aspect=fixed;" vertex="1" parent="k5s_pXgDDWJcjKSnaFx--7">
          <mxGeometry x="90" y="-30" width="10" height="30" as="geometry" />
        </mxCell>
        <mxCell id="k5s_pXgDDWJcjKSnaFx--15" value="" style="group;aspect=fixed;" vertex="1" connectable="0" parent="k5s_pXgDDWJcjKSnaFx--86">
          <mxGeometry x="135" y="140" width="120" height="120" as="geometry" />
        </mxCell>
        <mxCell id="k5s_pXgDDWJcjKSnaFx--8" value="" style="rhombus;whiteSpace=wrap;html=1;rounded=0;labelBackgroundColor=none;strokeColor=#0F140C;strokeWidth=2;align=center;verticalAlign=middle;fontFamily=Helvetica;fontSize=12;fontColor=default;fillColor=#d5e8d4;aspect=fixed;" vertex="1" parent="k5s_pXgDDWJcjKSnaFx--15">
          <mxGeometry width="120" height="120" as="geometry" />
        </mxCell>
        <mxCell id="k5s_pXgDDWJcjKSnaFx--11" value="&lt;b&gt;&lt;font color=&quot;#000000&quot; style=&quot;font-size: 14px;&quot; face=&quot;Comic Sans MS&quot;&gt;num1 &amp;gt; num2&lt;/font&gt;&lt;/b&gt;" style="text;strokeColor=none;align=center;fillColor=none;html=1;verticalAlign=middle;whiteSpace=wrap;rounded=0;fontFamily=Architects Daughter;fontSource=https%3A%2F%2Ffonts.googleapis.com%2Fcss%3Ffamily%3DArchitects%2BDaughter;aspect=fixed;" vertex="1" parent="k5s_pXgDDWJcjKSnaFx--15">
          <mxGeometry x="10" y="45" width="100" height="30" as="geometry" />
        </mxCell>
        <mxCell id="k5s_pXgDDWJcjKSnaFx--16" value="" style="group;aspect=fixed;" vertex="1" connectable="0" parent="k5s_pXgDDWJcjKSnaFx--86">
          <mxGeometry x="135" y="350" width="120" height="120" as="geometry" />
        </mxCell>
        <mxCell id="k5s_pXgDDWJcjKSnaFx--17" value="" style="rhombus;whiteSpace=wrap;html=1;rounded=0;labelBackgroundColor=none;strokeColor=#0F140C;strokeWidth=2;align=center;verticalAlign=middle;fontFamily=Helvetica;fontSize=12;fontColor=default;fillColor=#d5e8d4;aspect=fixed;" vertex="1" parent="k5s_pXgDDWJcjKSnaFx--16">
          <mxGeometry width="120" height="120" as="geometry" />
        </mxCell>
        <mxCell id="k5s_pXgDDWJcjKSnaFx--18" value="&lt;b&gt;&lt;font color=&quot;#000000&quot; style=&quot;font-size: 14px;&quot; face=&quot;Comic Sans MS&quot;&gt;num3 &amp;gt; max&lt;/font&gt;&lt;/b&gt;" style="text;strokeColor=none;align=center;fillColor=none;html=1;verticalAlign=middle;whiteSpace=wrap;rounded=0;fontFamily=Architects Daughter;fontSource=https://fonts.googleapis.com/css?family=Architects+Daughter;aspect=fixed;" vertex="1" parent="k5s_pXgDDWJcjKSnaFx--16">
          <mxGeometry x="10" y="45" width="100" height="30" as="geometry" />
        </mxCell>
        <mxCell id="k5s_pXgDDWJcjKSnaFx--23" value="" style="group;aspect=fixed;" vertex="1" connectable="0" parent="k5s_pXgDDWJcjKSnaFx--86">
          <mxGeometry x="5" y="250" width="130" height="40" as="geometry" />
        </mxCell>
        <mxCell id="k5s_pXgDDWJcjKSnaFx--9" value="" style="rounded=0;whiteSpace=wrap;html=1;labelBackgroundColor=none;strokeColor=#0f100e;strokeWidth=2;align=center;verticalAlign=middle;fontFamily=Helvetica;fontSize=12;fontColor=default;fillColor=#d5e8d4;aspect=fixed;" vertex="1" parent="k5s_pXgDDWJcjKSnaFx--23">
          <mxGeometry width="130" height="40" as="geometry" />
        </mxCell>
        <mxCell id="k5s_pXgDDWJcjKSnaFx--22" value="&lt;b&gt;&lt;font style=&quot;font-size: 14px;&quot; color=&quot;#000000&quot; face=&quot;Comic Sans MS&quot;&gt;max = num1&lt;/font&gt;&lt;/b&gt;&lt;div&gt;&lt;b&gt;&lt;font style=&quot;font-size: 14px;&quot; color=&quot;#000000&quot; face=&quot;Comic Sans MS&quot;&gt;medio = num2&lt;/font&gt;&lt;/b&gt;&lt;/div&gt;" style="text;strokeColor=none;align=center;fillColor=none;html=1;verticalAlign=middle;whiteSpace=wrap;rounded=0;fontFamily=Architects Daughter;fontSource=https%3A%2F%2Ffonts.googleapis.com%2Fcss%3Ffamily%3DArchitects%2BDaughter;aspect=fixed;" vertex="1" parent="k5s_pXgDDWJcjKSnaFx--23">
          <mxGeometry x="15" y="5" width="100" height="30" as="geometry" />
        </mxCell>
        <mxCell id="k5s_pXgDDWJcjKSnaFx--24" value="" style="group;aspect=fixed;" vertex="1" connectable="0" parent="k5s_pXgDDWJcjKSnaFx--86">
          <mxGeometry x="265" y="250" width="130" height="40" as="geometry" />
        </mxCell>
        <mxCell id="k5s_pXgDDWJcjKSnaFx--25" value="" style="rounded=0;whiteSpace=wrap;html=1;labelBackgroundColor=none;strokeColor=#0f100e;strokeWidth=2;align=center;verticalAlign=middle;fontFamily=Helvetica;fontSize=12;fontColor=default;fillColor=#d5e8d4;aspect=fixed;" vertex="1" parent="k5s_pXgDDWJcjKSnaFx--24">
          <mxGeometry width="130" height="40" as="geometry" />
        </mxCell>
        <mxCell id="k5s_pXgDDWJcjKSnaFx--26" value="&lt;b&gt;&lt;font style=&quot;font-size: 14px;&quot; color=&quot;#000000&quot; face=&quot;Comic Sans MS&quot;&gt;max = num2&lt;/font&gt;&lt;/b&gt;&lt;div&gt;&lt;b&gt;&lt;font style=&quot;font-size: 14px;&quot; color=&quot;#000000&quot; face=&quot;Comic Sans MS&quot;&gt;medio = num1&lt;/font&gt;&lt;/b&gt;&lt;/div&gt;" style="text;strokeColor=none;align=center;fillColor=none;html=1;verticalAlign=middle;whiteSpace=wrap;rounded=0;fontFamily=Architects Daughter;fontSource=https://fonts.googleapis.com/css?family=Architects+Daughter;aspect=fixed;" vertex="1" parent="k5s_pXgDDWJcjKSnaFx--24">
          <mxGeometry x="15" y="5" width="100" height="30" as="geometry" />
        </mxCell>
        <mxCell id="k5s_pXgDDWJcjKSnaFx--35" value="" style="group;aspect=fixed;" vertex="1" connectable="0" parent="k5s_pXgDDWJcjKSnaFx--86">
          <mxGeometry y="460" width="140" height="60" as="geometry" />
        </mxCell>
        <mxCell id="k5s_pXgDDWJcjKSnaFx--33" value="" style="rounded=0;whiteSpace=wrap;html=1;labelBackgroundColor=none;strokeColor=#0f100e;strokeWidth=2;align=center;verticalAlign=middle;fontFamily=Helvetica;fontSize=12;fontColor=default;fillColor=#d5e8d4;aspect=fixed;" vertex="1" parent="k5s_pXgDDWJcjKSnaFx--35">
          <mxGeometry x="10" width="120" height="60" as="geometry" />
        </mxCell>
        <mxCell id="k5s_pXgDDWJcjKSnaFx--34" value="&lt;font face=&quot;Comic Sans MS&quot; color=&quot;#000000&quot;&gt;&lt;span style=&quot;font-size: 14px;&quot;&gt;&lt;b&gt;mini = medio&lt;/b&gt;&lt;/span&gt;&lt;/font&gt;&lt;div&gt;&lt;font face=&quot;Comic Sans MS&quot; color=&quot;#000000&quot;&gt;&lt;span style=&quot;font-size: 14px;&quot;&gt;&lt;b&gt;medio = max&lt;/b&gt;&lt;/span&gt;&lt;/font&gt;&lt;/div&gt;&lt;div&gt;&lt;font face=&quot;Comic Sans MS&quot; color=&quot;#000000&quot;&gt;&lt;span style=&quot;font-size: 14px;&quot;&gt;&lt;b&gt;max = num3&lt;/b&gt;&lt;/span&gt;&lt;/font&gt;&lt;/div&gt;" style="text;strokeColor=none;align=center;fillColor=none;html=1;verticalAlign=middle;whiteSpace=wrap;rounded=0;fontFamily=Architects Daughter;fontSource=https://fonts.googleapis.com/css?family=Architects+Daughter;aspect=fixed;" vertex="1" parent="k5s_pXgDDWJcjKSnaFx--35">
          <mxGeometry y="9" width="140" height="42" as="geometry" />
        </mxCell>
        <mxCell id="k5s_pXgDDWJcjKSnaFx--39" value="" style="group;aspect=fixed;" vertex="1" connectable="0" parent="k5s_pXgDDWJcjKSnaFx--86">
          <mxGeometry x="275" y="440" width="120" height="120" as="geometry" />
        </mxCell>
        <mxCell id="k5s_pXgDDWJcjKSnaFx--37" value="" style="rhombus;whiteSpace=wrap;html=1;rounded=0;labelBackgroundColor=none;strokeColor=#0F140C;strokeWidth=2;align=center;verticalAlign=middle;fontFamily=Helvetica;fontSize=12;fontColor=default;fillColor=#d5e8d4;aspect=fixed;" vertex="1" parent="k5s_pXgDDWJcjKSnaFx--39">
          <mxGeometry width="120" height="120" as="geometry" />
        </mxCell>
        <mxCell id="k5s_pXgDDWJcjKSnaFx--38" value="&lt;b&gt;&lt;font color=&quot;#000000&quot; style=&quot;font-size: 14px;&quot; face=&quot;Comic Sans MS&quot;&gt;num3 &amp;lt; medio&lt;/font&gt;&lt;/b&gt;" style="text;strokeColor=none;align=center;fillColor=none;html=1;verticalAlign=middle;whiteSpace=wrap;rounded=0;fontFamily=Architects Daughter;fontSource=https://fonts.googleapis.com/css?family=Architects+Daughter;aspect=fixed;" vertex="1" parent="k5s_pXgDDWJcjKSnaFx--39">
          <mxGeometry x="10" y="45" width="100" height="30" as="geometry" />
        </mxCell>
        <mxCell id="k5s_pXgDDWJcjKSnaFx--40" value="" style="group;aspect=fixed;" vertex="1" connectable="0" parent="k5s_pXgDDWJcjKSnaFx--86">
          <mxGeometry x="150" y="560" width="140" height="60" as="geometry" />
        </mxCell>
        <mxCell id="k5s_pXgDDWJcjKSnaFx--41" value="" style="rounded=0;whiteSpace=wrap;html=1;labelBackgroundColor=none;strokeColor=#0f100e;strokeWidth=2;align=center;verticalAlign=middle;fontFamily=Helvetica;fontSize=12;fontColor=default;fillColor=#d5e8d4;aspect=fixed;" vertex="1" parent="k5s_pXgDDWJcjKSnaFx--40">
          <mxGeometry x="10" width="120" height="60" as="geometry" />
        </mxCell>
        <mxCell id="k5s_pXgDDWJcjKSnaFx--42" value="&lt;font face=&quot;Comic Sans MS&quot; color=&quot;#000000&quot;&gt;&lt;span style=&quot;font-size: 14px;&quot;&gt;&lt;b&gt;mini = num3&lt;/b&gt;&lt;/span&gt;&lt;/font&gt;" style="text;strokeColor=none;align=center;fillColor=none;html=1;verticalAlign=middle;whiteSpace=wrap;rounded=0;fontFamily=Architects Daughter;fontSource=https://fonts.googleapis.com/css?family=Architects+Daughter;aspect=fixed;" vertex="1" parent="k5s_pXgDDWJcjKSnaFx--40">
          <mxGeometry y="9" width="140" height="42" as="geometry" />
        </mxCell>
        <mxCell id="k5s_pXgDDWJcjKSnaFx--43" value="" style="group;aspect=fixed;" vertex="1" connectable="0" parent="k5s_pXgDDWJcjKSnaFx--86">
          <mxGeometry x="385" y="560" width="140" height="60" as="geometry" />
        </mxCell>
        <mxCell id="k5s_pXgDDWJcjKSnaFx--44" value="" style="rounded=0;whiteSpace=wrap;html=1;labelBackgroundColor=none;strokeColor=#0f100e;strokeWidth=2;align=center;verticalAlign=middle;fontFamily=Helvetica;fontSize=12;fontColor=default;fillColor=#d5e8d4;aspect=fixed;" vertex="1" parent="k5s_pXgDDWJcjKSnaFx--43">
          <mxGeometry x="10" width="120" height="60" as="geometry" />
        </mxCell>
        <mxCell id="k5s_pXgDDWJcjKSnaFx--45" value="&lt;font face=&quot;Comic Sans MS&quot; color=&quot;#000000&quot;&gt;&lt;span style=&quot;font-size: 14px;&quot;&gt;&lt;b&gt;mini = medio&lt;/b&gt;&lt;/span&gt;&lt;/font&gt;&lt;div&gt;&lt;font face=&quot;Comic Sans MS&quot; color=&quot;#000000&quot;&gt;&lt;span style=&quot;font-size: 14px;&quot;&gt;&lt;b&gt;medio = num3&lt;/b&gt;&lt;/span&gt;&lt;/font&gt;&lt;/div&gt;" style="text;strokeColor=none;align=center;fillColor=none;html=1;verticalAlign=middle;whiteSpace=wrap;rounded=0;fontFamily=Architects Daughter;fontSource=https://fonts.googleapis.com/css?family=Architects+Daughter;aspect=fixed;" vertex="1" parent="k5s_pXgDDWJcjKSnaFx--43">
          <mxGeometry y="9" width="140" height="42" as="geometry" />
        </mxCell>
        <mxCell id="k5s_pXgDDWJcjKSnaFx--48" value="I" style="text;strokeColor=none;align=center;fillColor=none;html=1;verticalAlign=middle;whiteSpace=wrap;rounded=0;fontFamily=Comic Sans MS;fontStyle=1;fontColor=#000000;fontSize=17;aspect=fixed;" vertex="1" parent="k5s_pXgDDWJcjKSnaFx--86">
          <mxGeometry x="180" y="5" width="30" height="30" as="geometry" />
        </mxCell>
        <mxCell id="k5s_pXgDDWJcjKSnaFx--58" value="" style="line;strokeWidth=2;direction=south;html=1;hachureGap=4;fontFamily=Architects Daughter;fontSource=https://fonts.googleapis.com/css?family=Architects+Daughter;strokeColor=#000000;aspect=fixed;" vertex="1" parent="k5s_pXgDDWJcjKSnaFx--86">
          <mxGeometry x="190" y="110" width="10" height="30" as="geometry" />
        </mxCell>
        <mxCell id="k5s_pXgDDWJcjKSnaFx--59" value="" style="line;strokeWidth=2;direction=south;html=1;hachureGap=4;fontFamily=Architects Daughter;fontSource=https://fonts.googleapis.com/css?family=Architects+Daughter;strokeColor=#000000;aspect=fixed;" vertex="1" parent="k5s_pXgDDWJcjKSnaFx--86">
          <mxGeometry x="69" y="290" width="10" height="30" as="geometry" />
        </mxCell>
        <mxCell id="k5s_pXgDDWJcjKSnaFx--60" value="" style="line;strokeWidth=2;direction=south;html=1;hachureGap=4;fontFamily=Architects Daughter;fontSource=https://fonts.googleapis.com/css?family=Architects+Daughter;strokeColor=#000000;aspect=fixed;" vertex="1" parent="k5s_pXgDDWJcjKSnaFx--86">
          <mxGeometry x="69" y="199" width="10" height="50" as="geometry" />
        </mxCell>
        <mxCell id="k5s_pXgDDWJcjKSnaFx--62" value="" style="line;strokeWidth=2;direction=south;html=1;hachureGap=4;fontFamily=Architects Daughter;fontSource=https://fonts.googleapis.com/css?family=Architects+Daughter;strokeColor=#000000;aspect=fixed;" vertex="1" parent="k5s_pXgDDWJcjKSnaFx--86">
          <mxGeometry x="317" y="290" width="10" height="30" as="geometry" />
        </mxCell>
        <mxCell id="k5s_pXgDDWJcjKSnaFx--63" value="" style="line;strokeWidth=2;direction=south;html=1;hachureGap=4;fontFamily=Architects Daughter;fontSource=https://fonts.googleapis.com/css?family=Architects+Daughter;strokeColor=#000000;aspect=fixed;" vertex="1" parent="k5s_pXgDDWJcjKSnaFx--86">
          <mxGeometry x="190" y="320" width="10" height="30" as="geometry" />
        </mxCell>
        <mxCell id="k5s_pXgDDWJcjKSnaFx--64" value="" style="line;strokeWidth=2;direction=south;html=1;hachureGap=4;fontFamily=Architects Daughter;fontSource=https://fonts.googleapis.com/css?family=Architects+Daughter;strokeColor=#000000;aspect=fixed;" vertex="1" parent="k5s_pXgDDWJcjKSnaFx--86">
          <mxGeometry x="318" y="199" width="10" height="50" as="geometry" />
        </mxCell>
        <mxCell id="k5s_pXgDDWJcjKSnaFx--65" value="" style="line;strokeWidth=2;direction=south;html=1;hachureGap=4;fontFamily=Architects Daughter;fontSource=https://fonts.googleapis.com/css?family=Architects+Daughter;strokeColor=#000000;aspect=fixed;" vertex="1" parent="k5s_pXgDDWJcjKSnaFx--86">
          <mxGeometry x="450" y="499" width="10" height="61" as="geometry" />
        </mxCell>
        <mxCell id="k5s_pXgDDWJcjKSnaFx--66" value="" style="line;strokeWidth=2;html=1;perimeter=backbonePerimeter;points=[];outlineConnect=0;hachureGap=4;fontFamily=Architects Daughter;fontSource=https://fonts.googleapis.com/css?family=Architects+Daughter;strokeColor=#000000;aspect=fixed;" vertex="1" parent="k5s_pXgDDWJcjKSnaFx--86">
          <mxGeometry x="215" y="656" width="240" height="10" as="geometry" />
        </mxCell>
        <mxCell id="k5s_pXgDDWJcjKSnaFx--67" value="" style="line;strokeWidth=2;html=1;perimeter=backbonePerimeter;points=[];outlineConnect=0;hachureGap=4;fontFamily=Architects Daughter;fontSource=https://fonts.googleapis.com/css?family=Architects+Daughter;strokeColor=#000000;aspect=fixed;" vertex="1" parent="k5s_pXgDDWJcjKSnaFx--86">
          <mxGeometry x="65" y="405" width="70" height="10" as="geometry" />
        </mxCell>
        <mxCell id="k5s_pXgDDWJcjKSnaFx--68" value="" style="line;strokeWidth=2;html=1;perimeter=backbonePerimeter;points=[];outlineConnect=0;hachureGap=4;fontFamily=Architects Daughter;fontSource=https://fonts.googleapis.com/css?family=Architects+Daughter;strokeColor=#000000;aspect=fixed;" vertex="1" parent="k5s_pXgDDWJcjKSnaFx--86">
          <mxGeometry x="255" y="405" width="80" height="10" as="geometry" />
        </mxCell>
        <mxCell id="k5s_pXgDDWJcjKSnaFx--69" value="" style="line;strokeWidth=2;html=1;perimeter=backbonePerimeter;points=[];outlineConnect=0;hachureGap=4;fontFamily=Architects Daughter;fontSource=https://fonts.googleapis.com/css?family=Architects+Daughter;strokeColor=#000000;aspect=fixed;" vertex="1" parent="k5s_pXgDDWJcjKSnaFx--86">
          <mxGeometry x="75" y="195" width="60" height="10" as="geometry" />
        </mxCell>
        <mxCell id="k5s_pXgDDWJcjKSnaFx--70" value="" style="line;strokeWidth=2;html=1;perimeter=backbonePerimeter;points=[];outlineConnect=0;hachureGap=4;fontFamily=Architects Daughter;fontSource=https://fonts.googleapis.com/css?family=Architects+Daughter;strokeColor=#000000;aspect=fixed;" vertex="1" parent="k5s_pXgDDWJcjKSnaFx--86">
          <mxGeometry x="255" y="195" width="70" height="10" as="geometry" />
        </mxCell>
        <mxCell id="k5s_pXgDDWJcjKSnaFx--71" value="" style="line;strokeWidth=2;html=1;perimeter=backbonePerimeter;points=[];outlineConnect=0;hachureGap=4;fontFamily=Architects Daughter;fontSource=https://fonts.googleapis.com/css?family=Architects+Daughter;strokeColor=#000000;aspect=fixed;" vertex="1" parent="k5s_pXgDDWJcjKSnaFx--86">
          <mxGeometry x="74" y="313" width="251" height="10" as="geometry" />
        </mxCell>
        <mxCell id="k5s_pXgDDWJcjKSnaFx--72" value="" style="line;strokeWidth=2;html=1;perimeter=backbonePerimeter;points=[];outlineConnect=0;hachureGap=4;fontFamily=Architects Daughter;fontSource=https://fonts.googleapis.com/css?family=Architects+Daughter;strokeColor=#000000;aspect=fixed;" vertex="1" parent="k5s_pXgDDWJcjKSnaFx--86">
          <mxGeometry x="65" y="696" width="270" height="10" as="geometry" />
        </mxCell>
        <mxCell id="k5s_pXgDDWJcjKSnaFx--73" value="" style="line;strokeWidth=2;html=1;perimeter=backbonePerimeter;points=[];outlineConnect=0;hachureGap=4;fontFamily=Architects Daughter;fontSource=https://fonts.googleapis.com/css?family=Architects+Daughter;strokeColor=#000000;aspect=fixed;" vertex="1" parent="k5s_pXgDDWJcjKSnaFx--86">
          <mxGeometry x="215" y="495" width="60" height="10" as="geometry" />
        </mxCell>
        <mxCell id="k5s_pXgDDWJcjKSnaFx--74" value="" style="line;strokeWidth=2;html=1;perimeter=backbonePerimeter;points=[];outlineConnect=0;hachureGap=4;fontFamily=Architects Daughter;fontSource=https://fonts.googleapis.com/css?family=Architects+Daughter;strokeColor=#000000;aspect=fixed;" vertex="1" parent="k5s_pXgDDWJcjKSnaFx--86">
          <mxGeometry x="395" y="495" width="60" height="10" as="geometry" />
        </mxCell>
        <mxCell id="k5s_pXgDDWJcjKSnaFx--75" value="" style="line;strokeWidth=2;direction=south;html=1;hachureGap=4;fontFamily=Architects Daughter;fontSource=https://fonts.googleapis.com/css?family=Architects+Daughter;strokeColor=#000000;aspect=fixed;" vertex="1" parent="k5s_pXgDDWJcjKSnaFx--86">
          <mxGeometry x="330" y="660" width="10" height="40" as="geometry" />
        </mxCell>
        <mxCell id="k5s_pXgDDWJcjKSnaFx--76" value="" style="line;strokeWidth=2;direction=south;html=1;hachureGap=4;fontFamily=Architects Daughter;fontSource=https://fonts.googleapis.com/css?family=Architects+Daughter;strokeColor=#000000;aspect=fixed;" vertex="1" parent="k5s_pXgDDWJcjKSnaFx--86">
          <mxGeometry x="62" y="520" width="10" height="180" as="geometry" />
        </mxCell>
        <mxCell id="k5s_pXgDDWJcjKSnaFx--77" value="" style="line;strokeWidth=2;direction=south;html=1;hachureGap=4;fontFamily=Architects Daughter;fontSource=https://fonts.googleapis.com/css?family=Architects+Daughter;strokeColor=#000000;aspect=fixed;" vertex="1" parent="k5s_pXgDDWJcjKSnaFx--86">
          <mxGeometry x="210" y="499" width="10" height="61" as="geometry" />
        </mxCell>
        <mxCell id="k5s_pXgDDWJcjKSnaFx--78" value="" style="line;strokeWidth=2;direction=south;html=1;hachureGap=4;fontFamily=Architects Daughter;fontSource=https://fonts.googleapis.com/css?family=Architects+Daughter;strokeColor=#000000;aspect=fixed;" vertex="1" parent="k5s_pXgDDWJcjKSnaFx--86">
          <mxGeometry x="62" y="410" width="10" height="50" as="geometry" />
        </mxCell>
        <mxCell id="k5s_pXgDDWJcjKSnaFx--79" value="" style="line;strokeWidth=2;direction=south;html=1;hachureGap=4;fontFamily=Architects Daughter;fontSource=https://fonts.googleapis.com/css?family=Architects+Daughter;strokeColor=#000000;aspect=fixed;" vertex="1" parent="k5s_pXgDDWJcjKSnaFx--86">
          <mxGeometry x="330" y="410" width="10" height="30" as="geometry" />
        </mxCell>
        <mxCell id="k5s_pXgDDWJcjKSnaFx--80" value="" style="line;strokeWidth=2;direction=south;html=1;hachureGap=4;fontFamily=Architects Daughter;fontSource=https://fonts.googleapis.com/css?family=Architects+Daughter;strokeColor=#000000;aspect=fixed;" vertex="1" parent="k5s_pXgDDWJcjKSnaFx--86">
          <mxGeometry x="450" y="620" width="10" height="40" as="geometry" />
        </mxCell>
        <mxCell id="k5s_pXgDDWJcjKSnaFx--81" value="" style="line;strokeWidth=2;direction=south;html=1;hachureGap=4;fontFamily=Architects Daughter;fontSource=https://fonts.googleapis.com/css?family=Architects+Daughter;strokeColor=#000000;aspect=fixed;" vertex="1" parent="k5s_pXgDDWJcjKSnaFx--86">
          <mxGeometry x="210" y="620" width="10" height="40" as="geometry" />
        </mxCell>
        <mxCell id="k5s_pXgDDWJcjKSnaFx--82" value="" style="group;aspect=fixed;" vertex="1" connectable="0" parent="k5s_pXgDDWJcjKSnaFx--86">
          <mxGeometry x="175" y="810" width="40" height="40" as="geometry" />
        </mxCell>
        <mxCell id="k5s_pXgDDWJcjKSnaFx--3" value="" style="strokeWidth=2;html=1;shape=mxgraph.flowchart.start_2;whiteSpace=wrap;rounded=0;labelBackgroundColor=none;strokeColor=#000000;align=center;verticalAlign=middle;fontFamily=Helvetica;fontSize=12;fontColor=default;fillColor=#d5e8d4;aspect=fixed;" vertex="1" parent="k5s_pXgDDWJcjKSnaFx--82">
          <mxGeometry width="40" height="40" as="geometry" />
        </mxCell>
        <mxCell id="k5s_pXgDDWJcjKSnaFx--57" value="&lt;b&gt;&lt;font color=&quot;#000000&quot; style=&quot;font-size: 17px;&quot; face=&quot;Comic Sans MS&quot;&gt;F&lt;/font&gt;&lt;/b&gt;" style="text;strokeColor=none;align=center;fillColor=none;html=1;verticalAlign=middle;whiteSpace=wrap;rounded=0;fontFamily=Architects Daughter;fontSource=https%3A%2F%2Ffonts.googleapis.com%2Fcss%3Ffamily%3DArchitects%2BDaughter;aspect=fixed;" vertex="1" parent="k5s_pXgDDWJcjKSnaFx--82">
          <mxGeometry y="2.5" width="40" height="35" as="geometry" />
        </mxCell>
        <mxCell id="k5s_pXgDDWJcjKSnaFx--83" value="" style="group;aspect=fixed;" vertex="1" connectable="0" parent="k5s_pXgDDWJcjKSnaFx--86">
          <mxGeometry x="87.5" y="740" width="215" height="40" as="geometry" />
        </mxCell>
        <mxCell id="k5s_pXgDDWJcjKSnaFx--5" value="" style="shape=trapezoid;perimeter=trapezoidPerimeter;whiteSpace=wrap;html=1;fixedSize=1;rounded=0;labelBackgroundColor=none;strokeColor=#0F140C;strokeWidth=2;align=center;verticalAlign=middle;fontFamily=Helvetica;fontSize=12;fontColor=default;fillColor=#d5e8d4;aspect=fixed;" vertex="1" parent="k5s_pXgDDWJcjKSnaFx--83">
          <mxGeometry width="215" height="40" as="geometry" />
        </mxCell>
        <mxCell id="k5s_pXgDDWJcjKSnaFx--46" value="&lt;b&gt;&lt;font color=&quot;#000000&quot; style=&quot;font-size: 14px;&quot; face=&quot;Comic Sans MS&quot;&gt;mini, medio, max&lt;/font&gt;&lt;/b&gt;" style="text;strokeColor=none;align=center;fillColor=none;html=1;verticalAlign=middle;whiteSpace=wrap;rounded=0;fontFamily=Architects Daughter;fontSource=https%3A%2F%2Ffonts.googleapis.com%2Fcss%3Ffamily%3DArchitects%2BDaughter;aspect=fixed;" vertex="1" parent="k5s_pXgDDWJcjKSnaFx--83">
          <mxGeometry x="12.5" width="190" height="40" as="geometry" />
        </mxCell>
        <mxCell id="k5s_pXgDDWJcjKSnaFx--84" value="" style="line;strokeWidth=2;direction=south;html=1;hachureGap=4;fontFamily=Architects Daughter;fontSource=https://fonts.googleapis.com/css?family=Architects+Daughter;strokeColor=#000000;aspect=fixed;" vertex="1" parent="k5s_pXgDDWJcjKSnaFx--86">
          <mxGeometry x="190" y="780" width="10" height="30" as="geometry" />
        </mxCell>
        <mxCell id="k5s_pXgDDWJcjKSnaFx--85" value="" style="line;strokeWidth=2;direction=south;html=1;hachureGap=4;fontFamily=Architects Daughter;fontSource=https://fonts.googleapis.com/css?family=Architects+Daughter;strokeColor=#000000;aspect=fixed;" vertex="1" parent="k5s_pXgDDWJcjKSnaFx--86">
          <mxGeometry x="190" y="700" width="10" height="40" as="geometry" />
        </mxCell>
      </root>
    </mxGraphModel>
  </diagram>
</mxfile>
